# xmcd
#
# Track frame offsets: 
#        150
#        12492
#        27850
#        38555
#        51964
#        68747
#        83576
#        98154
#        112482
#        129237
#
# Disc length: 2008 seconds
#
# Revision: 0
# Processed by: cddbd v1.5.2PL0 Copyright (c) Steve Scherf et al.
# Submitted via: ExactAudioCopyFreeDBPlugin 1.0
#
DISCID=7c07d60a
DTITLE=Alathea - Appalachia Songs from the Porch
DYEAR=2014
DGENRE=Bluegrass
TTITLE0=The River
TTITLE1=Halls of Heaven
TTITLE2=A Boy, His Frog, A Girl, Her Dog
TTITLE3=Tremble
TTITLE4=My Roots Go Deeper
TTITLE5=Saving Me Now
TTITLE6=We Go Up to the Mountains
TTITLE7=Morning Birds
TTITLE8=Hurricane
TTITLE9=I Still Carry You
EXTD=
EXTT0=
EXTT1=
EXTT2=
EXTT3=
EXTT4=
EXTT5=
EXTT6=
EXTT7=
EXTT8=
EXTT9=
PLAYORDER=
